<mxfile host="Electron" modified="2024-06-03T20:11:05.232Z" agent="Mozilla/5.0 (Windows NT 10.0; Win64; x64) AppleWebKit/537.36 (KHTML, like Gecko) draw.io/24.2.5 Chrome/120.0.6099.109 Electron/28.1.0 Safari/537.36" etag="Nbh868vTz7RUHh5oMySN" version="24.2.5" type="device">
  <diagram name="第 1 页" id="PqMWwdmtvEZZTA3og5LH">
    <mxGraphModel dx="2140" dy="776" grid="1" gridSize="10" guides="1" tooltips="1" connect="1" arrows="1" fold="1" page="1" pageScale="1" pageWidth="827" pageHeight="1169" math="0" shadow="0">
      <root>
        <mxCell id="0" />
        <mxCell id="1" parent="0" />
        <mxCell id="kfaNiAuu3lM5sxb3OcEL-1" value="" style="group" vertex="1" connectable="0" parent="1">
          <mxGeometry x="-280" y="70" width="830" height="850" as="geometry" />
        </mxCell>
        <mxCell id="2O985KKIJngJxRQL51PF-23" value="" style="group" parent="kfaNiAuu3lM5sxb3OcEL-1" vertex="1" connectable="0">
          <mxGeometry y="110" width="770" height="540" as="geometry" />
        </mxCell>
        <mxCell id="2O985KKIJngJxRQL51PF-12" value="" style="whiteSpace=wrap;html=1;aspect=fixed;" parent="2O985KKIJngJxRQL51PF-23" vertex="1">
          <mxGeometry x="130" width="540" height="540" as="geometry" />
        </mxCell>
        <mxCell id="2O985KKIJngJxRQL51PF-7" style="rounded=0;orthogonalLoop=1;jettySize=auto;html=1;exitX=0.25;exitY=1;exitDx=0;exitDy=0;strokeWidth=4;" parent="2O985KKIJngJxRQL51PF-23" source="2O985KKIJngJxRQL51PF-3" target="2O985KKIJngJxRQL51PF-5" edge="1">
          <mxGeometry relative="1" as="geometry" />
        </mxCell>
        <mxCell id="2O985KKIJngJxRQL51PF-8" style="rounded=0;orthogonalLoop=1;jettySize=auto;html=1;exitX=0.75;exitY=1;exitDx=0;exitDy=0;entryX=0.25;entryY=0;entryDx=0;entryDy=0;strokeWidth=4;" parent="2O985KKIJngJxRQL51PF-23" source="2O985KKIJngJxRQL51PF-3" target="2O985KKIJngJxRQL51PF-6" edge="1">
          <mxGeometry relative="1" as="geometry" />
        </mxCell>
        <mxCell id="2O985KKIJngJxRQL51PF-3" value="&lt;font style=&quot;font-size: 20px;&quot;&gt;连接器&lt;/font&gt;" style="rounded=1;whiteSpace=wrap;html=1;" parent="2O985KKIJngJxRQL51PF-23" vertex="1">
          <mxGeometry x="300" y="30" width="120" height="60" as="geometry" />
        </mxCell>
        <mxCell id="2O985KKIJngJxRQL51PF-5" value="&lt;font style=&quot;font-size: 20px;&quot;&gt;查询缓存&lt;/font&gt;" style="rounded=1;whiteSpace=wrap;html=1;" parent="2O985KKIJngJxRQL51PF-23" vertex="1">
          <mxGeometry x="190" y="180" width="120" height="60" as="geometry" />
        </mxCell>
        <mxCell id="2O985KKIJngJxRQL51PF-9" style="edgeStyle=orthogonalEdgeStyle;rounded=0;orthogonalLoop=1;jettySize=auto;html=1;exitX=0;exitY=0.5;exitDx=0;exitDy=0;entryX=1;entryY=0.5;entryDx=0;entryDy=0;strokeWidth=4;" parent="2O985KKIJngJxRQL51PF-23" source="2O985KKIJngJxRQL51PF-6" target="2O985KKIJngJxRQL51PF-5" edge="1">
          <mxGeometry relative="1" as="geometry" />
        </mxCell>
        <mxCell id="2O985KKIJngJxRQL51PF-13" style="edgeStyle=orthogonalEdgeStyle;rounded=0;orthogonalLoop=1;jettySize=auto;html=1;exitX=0.5;exitY=1;exitDx=0;exitDy=0;entryX=0.5;entryY=0;entryDx=0;entryDy=0;strokeWidth=4;" parent="2O985KKIJngJxRQL51PF-23" source="2O985KKIJngJxRQL51PF-6" target="2O985KKIJngJxRQL51PF-10" edge="1">
          <mxGeometry relative="1" as="geometry" />
        </mxCell>
        <mxCell id="2O985KKIJngJxRQL51PF-6" value="&lt;font style=&quot;font-size: 20px;&quot;&gt;分析器&lt;/font&gt;" style="rounded=1;whiteSpace=wrap;html=1;" parent="2O985KKIJngJxRQL51PF-23" vertex="1">
          <mxGeometry x="410" y="180" width="120" height="60" as="geometry" />
        </mxCell>
        <mxCell id="2O985KKIJngJxRQL51PF-14" style="edgeStyle=orthogonalEdgeStyle;rounded=0;orthogonalLoop=1;jettySize=auto;html=1;exitX=0.5;exitY=1;exitDx=0;exitDy=0;strokeWidth=4;" parent="2O985KKIJngJxRQL51PF-23" source="2O985KKIJngJxRQL51PF-10" target="2O985KKIJngJxRQL51PF-11" edge="1">
          <mxGeometry relative="1" as="geometry" />
        </mxCell>
        <mxCell id="2O985KKIJngJxRQL51PF-10" value="&lt;font style=&quot;font-size: 20px;&quot;&gt;优化器&lt;/font&gt;" style="rounded=1;whiteSpace=wrap;html=1;" parent="2O985KKIJngJxRQL51PF-23" vertex="1">
          <mxGeometry x="410" y="330" width="120" height="60" as="geometry" />
        </mxCell>
        <mxCell id="2O985KKIJngJxRQL51PF-11" value="&lt;font style=&quot;font-size: 20px;&quot;&gt;执行器&lt;/font&gt;" style="rounded=1;whiteSpace=wrap;html=1;" parent="2O985KKIJngJxRQL51PF-23" vertex="1">
          <mxGeometry x="410" y="460" width="120" height="60" as="geometry" />
        </mxCell>
        <mxCell id="2O985KKIJngJxRQL51PF-15" value="&lt;font style=&quot;font-size: 20px;&quot;&gt;Server层&lt;/font&gt;" style="text;html=1;align=center;verticalAlign=middle;whiteSpace=wrap;rounded=0;" parent="2O985KKIJngJxRQL51PF-23" vertex="1">
          <mxGeometry x="170" y="440" width="90" height="30" as="geometry" />
        </mxCell>
        <mxCell id="2O985KKIJngJxRQL51PF-18" value="&lt;font style=&quot;font-size: 18px;&quot;&gt;管理连接，权限验证&lt;/font&gt;" style="text;html=1;align=center;verticalAlign=middle;whiteSpace=wrap;rounded=0;fontColor=#66d11f;" parent="2O985KKIJngJxRQL51PF-23" vertex="1">
          <mxGeometry x="440" y="45" width="200" height="30" as="geometry" />
        </mxCell>
        <mxCell id="2O985KKIJngJxRQL51PF-19" value="&lt;font style=&quot;font-size: 18px;&quot;&gt;词法分析，语法分析&lt;/font&gt;" style="text;html=1;align=center;verticalAlign=middle;whiteSpace=wrap;rounded=0;fontColor=#66d11f;" parent="2O985KKIJngJxRQL51PF-23" vertex="1">
          <mxGeometry x="550" y="190" width="200" height="30" as="geometry" />
        </mxCell>
        <mxCell id="2O985KKIJngJxRQL51PF-20" value="&lt;font style=&quot;font-size: 18px;&quot;&gt;执行计划生成，索引选择&lt;/font&gt;" style="text;html=1;align=center;verticalAlign=middle;whiteSpace=wrap;rounded=0;fontColor=#66d11f;" parent="2O985KKIJngJxRQL51PF-23" vertex="1">
          <mxGeometry x="560" y="345" width="200" height="30" as="geometry" />
        </mxCell>
        <mxCell id="2O985KKIJngJxRQL51PF-21" value="&lt;font style=&quot;font-size: 18px;&quot;&gt;操作引擎，返回结果&lt;/font&gt;" style="text;html=1;align=center;verticalAlign=middle;whiteSpace=wrap;rounded=0;fontColor=#66d11f;" parent="2O985KKIJngJxRQL51PF-23" vertex="1">
          <mxGeometry x="570" y="475" width="200" height="30" as="geometry" />
        </mxCell>
        <mxCell id="2O985KKIJngJxRQL51PF-22" value="&lt;font style=&quot;font-size: 18px;&quot;&gt;命中则直接返回结果&lt;/font&gt;" style="text;html=1;align=center;verticalAlign=middle;whiteSpace=wrap;rounded=0;fontColor=#66d11f;" parent="2O985KKIJngJxRQL51PF-23" vertex="1">
          <mxGeometry y="195" width="200" height="30" as="geometry" />
        </mxCell>
        <mxCell id="2O985KKIJngJxRQL51PF-4" style="edgeStyle=orthogonalEdgeStyle;rounded=0;orthogonalLoop=1;jettySize=auto;html=1;exitX=0.5;exitY=1;exitDx=0;exitDy=0;strokeWidth=4;" parent="kfaNiAuu3lM5sxb3OcEL-1" source="2O985KKIJngJxRQL51PF-1" target="2O985KKIJngJxRQL51PF-3" edge="1">
          <mxGeometry relative="1" as="geometry" />
        </mxCell>
        <mxCell id="2O985KKIJngJxRQL51PF-1" value="&lt;font style=&quot;font-size: 20px;&quot;&gt;客户端&lt;/font&gt;" style="rounded=1;whiteSpace=wrap;html=1;" parent="kfaNiAuu3lM5sxb3OcEL-1" vertex="1">
          <mxGeometry x="300" width="120" height="60" as="geometry" />
        </mxCell>
        <mxCell id="2O985KKIJngJxRQL51PF-27" value="" style="rounded=0;whiteSpace=wrap;html=1;" parent="kfaNiAuu3lM5sxb3OcEL-1" vertex="1">
          <mxGeometry x="130" y="710" width="530" height="140" as="geometry" />
        </mxCell>
        <mxCell id="2O985KKIJngJxRQL51PF-24" value="&lt;font style=&quot;font-size: 20px;&quot;&gt;存储引擎&lt;/font&gt;" style="rounded=0;whiteSpace=wrap;html=1;" parent="kfaNiAuu3lM5sxb3OcEL-1" vertex="1">
          <mxGeometry x="330" y="750" width="120" height="60" as="geometry" />
        </mxCell>
        <mxCell id="2O985KKIJngJxRQL51PF-25" value="&lt;font style=&quot;font-size: 20px;&quot;&gt;存储引擎&lt;/font&gt;" style="rounded=0;whiteSpace=wrap;html=1;" parent="kfaNiAuu3lM5sxb3OcEL-1" vertex="1">
          <mxGeometry x="180" y="750" width="120" height="60" as="geometry" />
        </mxCell>
        <mxCell id="2O985KKIJngJxRQL51PF-26" value="&lt;font style=&quot;font-size: 20px;&quot;&gt;存储引擎&lt;/font&gt;" style="rounded=0;whiteSpace=wrap;html=1;" parent="kfaNiAuu3lM5sxb3OcEL-1" vertex="1">
          <mxGeometry x="480" y="750" width="120" height="60" as="geometry" />
        </mxCell>
        <mxCell id="2O985KKIJngJxRQL51PF-28" value="&lt;font style=&quot;font-size: 18px;&quot;&gt;存储数据，提供读写接口&lt;/font&gt;" style="text;html=1;align=center;verticalAlign=middle;whiteSpace=wrap;rounded=0;fontColor=#66d11f;" parent="kfaNiAuu3lM5sxb3OcEL-1" vertex="1">
          <mxGeometry x="630" y="765" width="200" height="30" as="geometry" />
        </mxCell>
        <mxCell id="2O985KKIJngJxRQL51PF-29" style="rounded=0;orthogonalLoop=1;jettySize=auto;html=1;strokeWidth=4;" parent="kfaNiAuu3lM5sxb3OcEL-1" source="2O985KKIJngJxRQL51PF-12" target="2O985KKIJngJxRQL51PF-27" edge="1">
          <mxGeometry relative="1" as="geometry" />
        </mxCell>
      </root>
    </mxGraphModel>
  </diagram>
</mxfile>
